<?xml version="1.0" standalone="no"?>
<!DOCTYPE svg PUBLIC "-//W3C//DTD SVG 20010904//EN"
 "http://www.w3.org/TR/2001/REC-SVG-20010904/DTD/svg10.dtd">
<svg version="1.0" xmlns="http://www.w3.org/2000/svg"
 width="400.000000pt" height="400.000000pt" viewBox="0 0 400.000000 400.000000"
 preserveAspectRatio="xMidYMid meet">
<metadata>
Created by potrace 1.14, written by Peter Selinger 2001-2017
</metadata>
<g transform="translate(0.000000,400.000000) scale(0.100000,-0.100000)"
fill="#000000" stroke="none">
<path d="M1838 3805 c-2 -2 -28 -6 -58 -9 -413 -49 -777 -326 -935 -710 -175
-426 -84 -891 244 -1248 l61 -66 -67 -23 c-171 -57 -389 -167 -527 -267 -77
-56 -96 -68 -126 -82 -24 -11 -24 -47 -1 -60 28 -14 66 21 52 48 -8 15 -4 21
22 35 151 78 529 223 657 252 8 2 58 15 110 29 52 14 112 27 134 31 21 3 41 7
45 9 3 2 33 7 65 10 32 4 62 8 65 10 3 2 42 7 86 11 44 4 89 9 100 11 25 5
345 5 401 0 95 -9 176 -18 197 -22 12 -2 42 -7 67 -10 166 -22 534 -132 718
-216 34 -15 65 -28 67 -28 3 0 66 -30 140 -66 117 -57 135 -69 130 -86 -7 -21
10 -48 31 -48 7 0 20 7 29 16 14 14 14 19 2 38 -8 11 -23 21 -33 22 -11 1 -55
28 -99 61 -152 114 -344 218 -518 281 -41 15 -75 32 -76 37 -1 6 16 37 39 71
l41 60 97 -21 c53 -12 119 -25 146 -28 l49 -6 -7 100 c-4 54 -9 105 -11 112
-2 6 -6 31 -9 55 -3 24 -10 62 -16 84 -6 22 -10 42 -7 44 2 2 30 -20 62 -48
l58 -52 -7 71 c-9 94 -40 203 -81 286 -19 37 -31 67 -27 67 4 0 43 -30 86 -66
44 -37 76 -58 72 -48 -5 11 -13 35 -18 54 -26 92 -108 251 -170 331 -15 20
-28 40 -28 43 0 10 50 -4 93 -26 20 -10 37 -16 37 -13 0 3 -13 35 -30 71 -38
84 -109 184 -178 252 -30 28 -50 53 -46 53 10 2 7 2 62 -5 l42 -5 -29 42 c-43
63 -137 157 -211 211 -36 26 -66 49 -68 50 -1 2 14 2 33 1 19 -2 35 0 35 4 -2
15 -138 108 -217 147 -94 47 -177 75 -298 100 -44 9 -83 18 -88 21 -8 5 -20 7
-112 22 -52 8 -269 13 -277 6z m331 -1649 c-3 -3 -11 5 -18 17 -13 21 -12 21
5 5 10 -10 16 -20 13 -22z m59 11 c-1 -2 4 -12 12 -22 14 -18 14 -18 -11 -2
-14 10 -28 15 -31 11 -3 -3 -9 -1 -12 5 -4 6 4 8 20 5 19 -3 24 -1 18 8 -4 7
-4 10 0 6 4 -3 6 -8 4 -11z m-5 -52 c-7 -21 -12 -19 -10 4 0 11 5 18 9 15 4
-3 5 -11 1 -19z m-33 11 c0 -3 -4 -8 -10 -11 -5 -3 -10 -1 -10 4 0 6 5 11 10
11 6 0 10 -2 10 -4z m63 -52 c-3 -8 -7 -14 -10 -14 -3 0 -3 7 1 15 3 8 1 15
-4 15 -6 0 -10 5 -10 11 0 8 4 8 14 -1 8 -6 12 -18 9 -26z m-29 0 c3 -8 2 -12
-4 -9 -6 3 -10 10 -10 16 0 14 7 11 14 -7z m43 -16 c-2 -7 3 -22 12 -33 15
-19 15 -19 -4 -5 -11 8 -21 15 -23 16 -4 2 10 34 15 34 3 0 3 -6 0 -12z m-25
-60 c-7 -7 -12 -8 -12 -2 0 6 3 14 7 17 3 4 9 5 12 2 2 -3 -1 -11 -7 -17z m54
-31 c11 -23 11 -27 1 -15 -11 14 -16 15 -27 5 -10 -9 -11 -9 -6 1 4 6 2 12 -3
12 -6 0 -11 5 -11 11 0 8 5 8 15 -1 18 -15 20 1 3 19 -11 11 -10 13 0 7 6 -4
19 -22 28 -39z m-54 -29 c-7 -7 -12 -8 -12 -2 0 6 3 14 7 17 3 4 9 5 12 2 2
-3 -1 -11 -7 -17z m62 -11 c17 -12 17 -15 3 -29 -9 -9 -13 -19 -9 -23 4 -5 1
-5 -6 -1 -11 7 -10 11 2 25 15 16 14 18 -14 18 -24 0 -27 -3 -19 -14 14 -17 3
-17 -15 0 -12 10 -10 14 8 24 27 16 29 16 50 0z"/>
<path d="M2552 1246 c-110 -28 -177 -118 -176 -236 1 -153 98 -239 274 -245
113 -4 146 6 154 46 3 17 6 43 6 58 -1 25 -2 24 -20 -11 -46 -87 -202 -77
-276 18 -75 95 -63 263 23 320 89 59 253 20 253 -61 0 -8 3 -15 8 -15 4 0 9
26 10 59 2 54 1 59 -21 65 -56 14 -184 15 -235 2z"/>
<path d="M10 1240 c8 -5 22 -10 31 -10 23 0 25 -20 24 -238 -1 -153 -4 -195
-15 -202 -8 -5 -17 -7 -21 -4 -4 2 -10 0 -14 -6 -6 -9 59 -13 235 -12 115 0
200 45 240 128 63 129 21 267 -97 326 -44 21 -63 23 -223 26 -119 1 -170 -1
-160 -8z m305 -48 c79 -40 116 -102 116 -195 1 -131 -62 -198 -186 -199 -71
-1 -95 14 -96 60 -5 161 -3 339 4 349 13 18 117 9 162 -15z"/>
<path d="M1707 1153 c-4 -21 -9 -56 -12 -78 -6 -38 -29 -181 -40 -252 -6 -35
-33 -50 -62 -34 -10 5 -46 77 -83 165 -36 86 -70 156 -75 156 -10 0 -17 -14
-51 -95 -9 -22 -24 -58 -34 -80 -10 -22 -28 -63 -40 -92 -15 -36 -30 -55 -49
-62 -22 -8 -15 -10 38 -10 56 -1 62 1 47 12 -17 13 -17 15 1 53 18 38 20 39
74 42 l56 3 16 -43 c10 -24 17 -49 17 -56 0 -9 33 -12 123 -11 97 0 116 3 93
11 -27 10 -28 13 -22 57 3 25 9 76 13 114 3 37 9 67 12 67 3 0 34 -56 69 -125
35 -69 67 -125 72 -125 5 0 38 58 72 130 60 124 74 145 75 118 1 -7 4 -33 8
-58 11 -73 17 -133 17 -161 0 -25 2 -26 70 -28 47 -1 68 1 63 8 -3 6 -15 11
-25 11 -21 0 -33 33 -46 125 -3 28 -8 57 -9 65 -1 8 -8 54 -15 102 -12 82 -23
118 -33 108 -3 -3 -40 -75 -82 -160 l-78 -155 -76 154 c-43 85 -82 156 -88
158 -6 2 -13 -13 -16 -34z m-269 -170 c6 -16 14 -40 17 -54 6 -24 4 -25 -29
-24 -20 1 -38 4 -41 7 -7 6 27 98 36 98 4 0 11 -12 17 -27z"/>
<path d="M950 1168 c0 -5 4 -7 9 -3 5 3 17 -2 26 -11 13 -14 15 -41 14 -178
-2 -165 -8 -199 -34 -190 -8 4 -15 1 -15 -5 0 -12 264 -19 277 -7 8 7 10 76 2
76 -5 0 -9 -7 -9 -15 0 -23 -38 -37 -87 -31 -25 3 -48 8 -51 11 -3 3 -6 38 -6
78 l-1 72 49 3 c42 3 53 0 68 -20 l18 -23 1 30 c0 17 2 38 4 48 3 14 -1 16
-18 11 -12 -4 -45 -8 -72 -10 l-50 -2 0 72 0 71 54 -1 c44 -2 58 -6 72 -25
l19 -24 0 33 c0 17 0 35 0 40 0 4 -61 8 -135 8 -77 1 -135 -3 -135 -8z"/>
<path d="M3193 1163 l26 -13 -1 -173 c-1 -160 -8 -205 -28 -192 -5 3 -11 1
-14 -4 -4 -6 33 -10 91 -10 91 -1 114 4 63 14 -12 2 -25 7 -28 10 -9 9 -9 327
0 354 5 15 14 21 23 17 8 -3 15 -1 15 4 0 5 -38 9 -86 8 -79 -1 -84 -2 -61
-15z"/>
<path d="M3720 1167 c0 -6 3 -7 6 -4 4 3 15 2 25 -4 17 -9 19 -24 19 -177 0
-92 -4 -172 -8 -178 -4 -6 -16 -16 -27 -22 -16 -9 0 -11 78 -12 60 0 96 4 92
10 -3 5 -11 7 -18 5 -27 -10 -38 12 -38 81 -2 118 -5 111 49 107 34 -3 52 -10
64 -26 l18 -22 1 28 c1 15 2 33 3 40 3 19 -4 28 -17 20 -21 -14 -117 -11 -118
4 -4 47 -3 123 1 124 8 1 72 1 98 0 15 -1 26 -9 29 -21 8 -29 20 -16 21 23 l1
34 -139 0 c-90 0 -140 -3 -140 -10z"/>
<path d="M590 1098 c0 -4 6 -8 14 -8 22 0 26 -24 24 -165 -1 -121 -2 -131 -22
-142 -18 -11 -10 -12 52 -13 40 0 72 4 72 10 0 5 -6 7 -14 4 -8 -3 -17 -1 -21
5 -8 13 -9 110 -1 118 14 15 54 -11 79 -52 41 -65 71 -85 126 -85 l46 0 -31
19 c-35 21 -124 120 -124 138 0 6 8 18 18 25 25 17 41 68 31 95 -15 41 -50 54
-153 57 -53 1 -96 -1 -96 -6z m170 -36 c17 -14 23 -29 23 -61 0 -47 -21 -70
-65 -71 -23 0 -27 5 -30 33 -2 17 -1 51 1 75 3 36 6 42 26 42 12 0 33 -8 45
-18z"/>
<path d="M2880 1099 c0 -4 8 -9 18 -12 18 -4 19 -16 17 -148 -2 -169 0 -156
-22 -162 -10 -3 36 -4 101 -4 l120 2 7 27 c4 16 3 30 -2 34 -5 3 -9 -2 -9 -10
0 -28 -105 -40 -122 -14 -4 7 -8 71 -8 141 0 123 1 128 23 137 12 5 20 9 17
10 -17 5 -140 4 -140 -1z"/>
<path d="M3435 1101 c-29 -4 -30 -4 -5 -10 25 -7 25 -8 28 -136 3 -146 0 -172
-26 -178 -9 -3 21 -5 68 -4 47 0 73 2 59 4 -31 5 -35 16 -35 98 l1 60 40 -2
c56 -2 55 -1 56 -20 1 -12 4 -10 9 7 15 46 13 48 -49 44 l-59 -4 2 58 c1 57 1
57 31 56 17 -1 40 -2 53 -3 12 -1 22 -7 22 -16 0 -30 15 -14 16 18 l1 32 -91
0 c-50 0 -104 -2 -121 -4z"/>
<path d="M549 698 c-1 -2 -3 -12 -4 -23 -17 -120 -29 -182 -38 -192 -7 -10 -1
-13 24 -13 21 0 29 3 21 8 -8 6 -10 23 -6 58 4 27 7 55 7 62 1 25 13 9 46 -61
l33 -72 36 73 c20 39 39 72 43 72 3 0 7 -15 7 -32 1 -18 4 -42 6 -53 3 -11 5
-28 5 -37 1 -14 9 -18 39 -17 20 1 29 3 20 6 -10 2 -18 6 -18 7 0 1 -4 27 -10
57 -5 30 -12 76 -15 103 -5 48 -11 64 -19 55 -3 -2 -22 -42 -44 -89 l-39 -84
-41 87 c-35 75 -48 95 -53 85z"/>
<path d="M2373 686 c19 -19 16 -194 -4 -207 -9 -6 2 -9 36 -9 38 1 46 3 33 11
-19 10 -23 79 -5 79 6 0 33 -22 62 -49 64 -61 159 -109 245 -126 158 -30 350
-27 490 10 43 11 46 13 15 9 -22 -3 -100 -8 -173 -11 -153 -6 -246 5 -372 45
l-85 27 45 3 c41 3 59 14 60 35 0 5 -10 1 -22 -7 -30 -21 -54 -6 -56 37 -1 34
15 43 45 24 9 -5 23 12 23 28 0 1 -16 1 -36 -2 -35 -5 -35 -4 -32 29 2 25 8
33 23 34 11 0 26 -4 33 -9 8 -7 12 -4 12 9 0 16 -8 19 -59 19 -33 0 -63 -4
-68 -8 -4 -5 -1 -7 7 -5 11 2 14 -12 15 -77 1 -44 0 -83 -2 -88 -6 -10 -39 9
-84 50 l-39 35 20 25 c24 31 26 66 4 84 -8 7 -44 14 -80 15 -53 3 -62 1 -51
-10z m96 -20 c7 -8 11 -30 9 -48 -2 -27 -8 -34 -29 -36 -24 -3 -26 0 -27 39
-1 22 1 45 4 50 8 14 30 11 43 -5z"/>
<path d="M860 648 c-88 -60 -47 -181 61 -180 74 1 118 55 105 127 -13 66 -103
96 -166 53z m102 -16 c40 -34 34 -127 -10 -143 -32 -12 -79 5 -87 31 -21 66
-13 105 23 124 28 15 47 12 74 -12z"/>
<path d="M1083 662 c-16 -11 -9 -136 9 -165 20 -29 65 -39 107 -21 35 15 43
37 42 115 0 33 4 59 9 59 6 0 10 4 10 8 0 4 -12 7 -27 6 -19 -1 -27 -6 -24
-15 9 -29 5 -139 -6 -150 -17 -17 -62 -18 -75 -2 -14 17 -20 153 -7 153 5 0 9
4 9 8 0 10 -33 13 -47 4z"/>
<path d="M1307 663 c-3 -5 -5 -46 -6 -93 -1 -54 -6 -87 -14 -92 -7 -4 5 -8 28
-8 26 0 35 3 26 9 -8 5 -14 32 -17 69 l-3 60 70 -69 c38 -38 74 -69 78 -69 5
0 9 38 10 85 1 47 4 90 6 97 4 9 -5 14 -26 14 -21 1 -27 -1 -18 -7 13 -7 24
-129 12 -129 -3 0 -36 32 -73 70 -38 39 -71 67 -73 63z"/>
<path d="M1525 661 c-3 -2 -5 -11 -5 -20 0 -12 3 -12 12 -3 7 7 22 12 35 12
25 0 26 -2 24 -103 0 -32 -3 -63 -7 -68 -3 -5 12 -9 33 -8 21 0 32 3 26 6 -9
3 -13 31 -13 88 0 81 1 84 23 83 12 -1 28 -6 35 -11 8 -7 12 -4 12 9 0 17 -9
19 -85 19 -47 1 -88 -1 -90 -4z"/>
<path d="M1773 658 c-5 -7 -22 -44 -38 -83 -15 -38 -37 -78 -48 -87 -19 -18
-18 -18 19 -17 22 0 34 3 27 5 -8 4 -9 13 -2 33 8 24 15 28 41 26 32 -3 48
-18 48 -47 0 -14 8 -18 37 -18 37 0 37 0 15 16 -12 8 -22 19 -22 24 0 5 -15
43 -33 85 -25 56 -37 72 -44 63z m16 -95 c1 -7 -8 -13 -19 -13 -23 0 -23 0 -9
37 10 26 12 27 19 8 5 -11 9 -26 9 -32z"/>
<path d="M1900 658 c0 -4 4 -8 9 -8 12 0 9 -164 -3 -172 -6 -4 9 -8 34 -8 32
0 41 3 30 10 -11 7 -15 30 -15 96 l0 87 -27 1 c-16 1 -28 -2 -28 -6z"/>
<path d="M2039 663 c-1 -4 -3 -45 -4 -91 -1 -60 -6 -86 -16 -93 -10 -6 -2 -9
26 -9 23 0 35 4 28 8 -11 7 -27 122 -17 122 2 0 35 -29 72 -65 37 -36 70 -65
74 -65 5 0 8 41 8 90 0 57 4 90 11 90 5 0 8 4 5 8 -6 11 -52 9 -63 -2 -4 -4
-1 -6 7 -4 12 2 15 -10 17 -59 1 -35 0 -63 -2 -63 -2 0 -35 32 -74 71 -39 38
-72 67 -72 62z"/>
<path d="M2800 664 c-48 -14 -43 -79 9 -110 37 -22 46 -51 20 -65 -25 -13 -57
-3 -61 19 -3 15 -4 15 -10 1 -10 -26 7 -41 48 -41 27 0 43 6 56 22 29 36 18
58 -60 121 -18 15 -10 33 18 37 15 3 29 -3 38 -15 13 -17 13 -16 10 7 -3 25
-30 35 -68 24z"/>
<path d="M2966 655 c-41 -22 -55 -44 -56 -88 0 -30 7 -45 30 -69 28 -28 35
-30 85 -26 53 5 94 31 96 62 0 6 2 20 5 31 6 33 -16 73 -51 89 -41 20 -72 20
-109 1z m94 -25 c27 -27 34 -63 21 -103 -27 -82 -131 -41 -131 50 0 65 66 97
110 53z"/>
<path d="M3162 652 c14 -16 18 -140 6 -164 -8 -16 -4 -18 29 -17 21 0 32 3 26
6 -16 6 -17 73 -1 73 6 0 26 -18 45 -40 27 -31 42 -40 66 -40 l32 0 -30 19
c-17 10 -39 30 -49 45 -16 25 -16 29 -2 45 20 22 20 55 1 71 -9 7 -42 14 -75
14 -49 2 -57 0 -48 -12z m97 -20 c12 -23 4 -59 -16 -66 -24 -10 -33 3 -33 45
0 32 3 39 20 39 10 0 24 -8 29 -18z"/>
<path d="M3340 656 c-13 -13 -13 -29 0 -21 22 14 60 15 61 3 5 -59 4 -108 -2
-135 -7 -32 -6 -33 29 -33 28 0 33 3 24 12 -7 7 -12 42 -12 89 l0 77 26 -3
c15 -1 30 -9 35 -16 6 -10 9 -7 9 11 0 25 -1 25 -80 25 -44 0 -85 -4 -90 -9z"/>
<path d="M1690 255 c0 -45 4 -65 13 -65 9 0 11 18 9 65 -5 84 -22 84 -22 0z"/>
<path d="M2215 255 c0 -38 4 -65 10 -65 6 0 11 27 10 65 0 37 -4 65 -10 65 -6
0 -10 -28 -10 -65z"/>
<path d="M2265 310 c-3 -5 -1 -10 4 -10 6 0 11 5 11 10 0 6 -2 10 -4 10 -3 0
-8 -4 -11 -10z"/>
<path d="M2333 313 c-7 -3 -13 -13 -13 -24 0 -10 -6 -19 -12 -19 -10 0 -9 -3
1 -9 9 -6 12 -20 9 -40 -3 -21 0 -31 8 -31 8 0 12 11 10 28 -1 15 5 36 13 46
9 11 11 16 5 13 -14 -8 -27 20 -14 28 6 4 10 1 10 -5 0 -13 21 -9 23 4 2 10
-22 15 -40 9z"/>
<path d="M2386 291 c-9 -16 -12 -32 -8 -36 11 -10 9 -49 -3 -57 -6 -5 -3 -8 8
-8 13 0 17 9 18 35 1 19 2 49 3 65 0 17 0 30 -1 30 -1 0 -9 -13 -17 -29z"/>
<path d="M2420 306 c0 -9 5 -16 10 -16 6 0 10 4 10 9 0 6 -4 13 -10 16 -5 3
-10 -1 -10 -9z"/>
<path d="M1220 270 c0 -5 4 -11 9 -14 4 -3 11 -20 15 -38 5 -26 9 -30 16 -18
6 9 6 18 0 24 -6 6 -10 18 -10 27 0 9 -7 19 -15 23 -8 3 -15 1 -15 -4z"/>
<path d="M1268 268 c6 -6 8 -17 5 -24 -3 -8 0 -14 6 -14 6 0 11 -6 11 -14 0
-24 17 -28 23 -6 3 11 1 18 -4 14 -8 -4 -13 16 -11 37 1 4 -8 9 -20 12 -15 4
-18 3 -10 -5z"/>
<path d="M1313 266 c-4 -5 3 -7 14 -4 22 6 43 -24 43 -59 0 -12 3 -14 11 -6 8
8 8 17 -1 33 -6 12 -10 27 -7 33 5 15 -52 17 -60 3z"/>
<path d="M1394 253 c-1 -12 2 -21 6 -18 4 3 11 -7 14 -20 4 -14 10 -23 15 -21
11 7 -10 83 -23 83 -6 0 -12 -11 -12 -24z"/>
<path d="M1441 264 c5 -6 8 -13 6 -15 -1 -2 3 2 10 10 10 11 15 6 29 -29 12
-29 19 -38 25 -28 11 17 11 31 0 24 -5 -4 -12 6 -16 22 -5 23 -11 28 -35 27
-19 0 -25 -3 -19 -11z"/>
<path d="M1528 233 c9 -24 20 -39 24 -35 5 5 4 21 -2 36 -5 15 -8 31 -6 35 3
4 -4 7 -13 7 -17 0 -18 -3 -3 -43z"/>
<path d="M1567 258 c-8 -29 -4 -32 11 -8 6 10 8 21 3 24 -5 3 -11 -4 -14 -16z"/>
<path d="M1646 264 c-9 -8 -16 -20 -16 -25 0 -18 20 -49 32 -49 9 0 9 3 0 12
-7 7 -12 21 -12 33 0 12 5 26 12 33 7 7 9 12 6 12 -4 0 -14 -7 -22 -16z"/>
<path d="M1738 262 c9 -21 9 -43 -1 -59 -5 -8 -1 -11 10 -10 25 1 26 79 0 83
-12 2 -15 -2 -9 -14z"/>
<path d="M1780 266 c0 -9 5 -16 10 -16 6 0 10 4 10 9 0 6 -4 13 -10 16 -5 3
-10 -1 -10 -9z"/>
<path d="M1816 259 c-20 -29 -3 -69 29 -69 6 1 3 5 -5 10 -20 11 -19 65 1 65
8 0 13 -8 13 -17 -1 -10 4 -18 12 -18 19 0 18 15 -2 34 -21 21 -30 20 -48 -5z"/>
<path d="M1903 273 c-18 -7 -16 -23 3 -23 8 0 12 5 9 10 -3 6 1 10 9 10 26 0
18 -27 -10 -34 -40 -10 -28 -41 16 -41 26 0 34 4 31 15 -2 8 -4 22 -5 30 -4
35 -22 46 -53 33z m35 -55 c-6 -18 -28 -21 -28 -4 0 9 7 16 16 16 9 0 14 -5
12 -12z"/>
<path d="M1985 234 c0 -53 21 -60 27 -9 4 37 0 49 -17 52 -5 1 -10 -19 -10
-43z"/>
<path d="M2040 241 c5 -27 3 -42 -4 -45 -6 -2 -2 -5 9 -5 16 -1 20 5 20 36 0
20 6 38 13 40 8 3 12 -8 12 -36 0 -23 5 -41 10 -41 6 0 10 15 10 34 0 39 -23
64 -43 47 -10 -7 -17 -7 -24 0 -7 7 -8 -1 -3 -30z"/>
<path d="M2174 260 c0 -11 5 -21 11 -21 16 -1 17 17 2 30 -12 9 -14 7 -13 -9z"/>
<path d="M2265 235 c0 -27 5 -45 11 -45 15 0 13 82 -1 87 -6 2 -10 -16 -10
-42z"/>
<path d="M2496 264 c-19 -18 -21 -45 -4 -62 20 -20 29 -13 13 11 -13 21 -13
25 1 45 18 26 12 29 -10 6z"/>
<path d="M2527 261 c-3 -11 -1 -23 3 -26 14 -8 22 13 12 31 -8 14 -10 14 -15
-5z"/>
<path d="M2570 261 c-13 -25 -13 -34 3 -54 10 -15 12 -11 12 28 0 25 -1 45 -2
45 -1 0 -7 -9 -13 -19z"/>
<path d="M2607 268 c13 -17 13 -49 0 -65 -6 -9 -6 -13 2 -13 15 0 32 45 25 64
-3 8 -13 17 -21 20 -12 5 -13 3 -6 -6z"/>
<path d="M2659 276 c0 0 -1 -20 -2 -44 -2 -36 1 -42 18 -42 11 0 15 4 10 8
-12 8 -12 43 -1 61 12 20 26 1 26 -35 0 -19 5 -34 11 -34 6 0 9 6 6 13 -2 6
-1 24 3 38 5 17 4 26 -4 27 -6 0 -23 3 -38 5 -16 2 -28 4 -29 3z"/>
<path d="M2755 235 c0 -26 5 -45 11 -45 14 0 12 66 -2 80 -6 6 -9 -6 -9 -35z"/>
<path d="M2137 263 c-12 -12 -7 -50 8 -63 9 -7 18 -10 22 -6 3 3 1 6 -6 6 -9
0 -12 11 -9 35 4 34 -1 43 -15 28z"/>
<path d="M1590 200 c0 -5 5 -10 10 -10 6 0 10 5 10 10 0 6 -4 10 -10 10 -5 0
-10 -4 -10 -10z"/>
<path d="M2440 200 c0 -5 5 -10 10 -10 6 0 10 5 10 10 0 6 -4 10 -10 10 -5 0
-10 -4 -10 -10z"/>
</g>
</svg>
